<svg width="22" height="20" viewBox="0 0 22 20" fill="none" xmlns="http://www.w3.org/2000/svg">
<path d="M9.98738 0.85958C10.2872 -0.0606967 11.5891 -0.0606959 11.889 0.859581L13.6401 6.23398C13.7742 6.64561 14.158 6.92418 14.5909 6.92418H20.2516C21.221 6.92418 21.6234 8.16521 20.8384 8.73398L16.2635 12.0486C15.912 12.3033 15.7649 12.7555 15.8994 13.1682L17.648 18.5349C17.948 19.4557 16.8947 20.2227 16.1105 19.6544L11.5249 16.3321C11.1749 16.0784 10.7015 16.0784 10.3515 16.3321L5.76592 19.6544C4.98166 20.2227 3.92837 19.4557 4.2284 18.5348L5.97697 13.1682C6.11142 12.7555 5.96434 12.3033 5.61288 12.0486L1.03801 8.73398C0.253002 8.16521 0.655333 6.92418 1.62473 6.92418H7.28548C7.71841 6.92418 8.10217 6.64561 8.23629 6.23398L9.98738 0.85958Z" fill="#070707"/>
</svg>
